<?xml version="1.0" encoding="UTF-8" standalone="no"?>
<!DOCTYPE svg PUBLIC "-//W3C//DTD SVG 1.1//EN" "http://www.w3.org/Graphics/SVG/1.1/DTD/svg11.dtd">
<svg width="100%" height="100%" viewBox="0 0 1080 1080" version="1.1" xmlns="http://www.w3.org/2000/svg" xmlns:xlink="http://www.w3.org/1999/xlink" xml:space="preserve" xmlns:serif="http://www.serif.com/" style="fill-rule:evenodd;clip-rule:evenodd;stroke-linecap:round;stroke-linejoin:round;stroke-miterlimit:1.5;">
    <g id="パーツ一部テスト" transform="matrix(2.81088,0,0,2.81088,-4323.43,-1165.44)">
        <g transform="matrix(0.355761,0,0,0.355761,1538.11,414.619)">
            <g id="頭">
                <path d="M359.183,389.379C338.174,410.135 279.158,450.396 250.027,475.069C222.06,498.755 189.296,520.617 181.386,502.801C172.121,481.937 164.34,460.907 163.072,451.947C160.721,435.338 160.216,399.013 159.087,388.312C157.626,374.477 156.399,365.843 155.874,366.392C155.349,366.941 121.688,303.589 117.38,302.1C113.072,300.611 49.567,294.356 49.567,294.356C49.567,294.356 53.459,286.029 62.473,283.625C82.691,278.233 128.656,267.273 128.656,267.273C128.656,267.273 181.425,202.594 232.575,198.684C270.105,195.815 320.732,207.086 354.233,237.252C381.674,261.962 401.855,310.85 416.592,321.177C432.765,332.512 381.339,367.49 359.183,389.379Z" style="fill:white;"/>
            </g>
        </g>
        <g transform="matrix(0.355761,0,0,0.355761,1538.11,414.619)">
            <g id="体">
                <path d="M406.051,679.9C378.06,674.61 344.163,664.519 299.172,637.836C253.524,610.765 225.929,577.94 205.231,548.264C198.009,537.91 188.569,519.179 180.435,500.648C171.594,480.505 180.463,460.213 191.524,448.231C197.793,441.441 229.844,418.28 260.459,401.644C286.279,387.614 293.373,383.132 310.843,385.527C333.133,388.582 351.621,423.235 385.122,453.402C412.563,478.112 451.946,505.419 467.576,514.338C511.662,539.493 526.26,549.286 571.95,564.425C604.584,575.238 664.721,600.18 680.138,606.335C693.534,611.684 854.73,714.246 854.73,714.246C854.73,714.246 760.693,679.311 757.934,678.815C757.934,678.815 611,655.414 589.584,653.855C572.228,652.593 546.944,674.156 530.077,676.099C524.919,676.693 513.621,678.304 513.621,678.304C513.621,678.304 491.059,707.683 484.772,716.247C481.595,720.575 475.901,729.691 475.901,729.691L463.525,724.382L491.45,681.858L482.307,683.458C482.307,683.458 473.073,700.076 467.167,706.287C457.049,716.927 421.596,746.389 421.596,746.389L416.511,730.874L440.414,699.852L437.914,684.287C437.914,684.287 418.599,682.271 406.051,679.9Z" style="fill:white;"/>
            </g>
        </g>
        <g transform="matrix(0.355761,0,0,0.355761,1538.11,414.619)">
            <g id="足後ろ">
                <path d="M476.567,712.671C477.481,713.663 487.351,701.285 487.351,701.285L488.81,704.521L497.432,699.609C497.432,699.609 492.732,706.373 488.719,711.651C478.436,725.178 470.878,738.461 464.299,750.579C458.442,761.365 446.654,784.495 446.654,784.495C446.654,784.495 453.144,788.089 457.098,789.103C468.111,791.926 488.81,792.32 488.81,792.32C488.81,792.32 495.721,785.311 506.095,786.093C515.723,786.819 518.508,792.74 518.508,792.74C518.508,792.74 510.369,791.917 507.868,792.399C506.127,792.734 503.5,795.63 503.5,795.63C503.5,795.63 498.146,805.306 493.539,806.511C487.208,808.167 479.667,805.51 468.624,804.772C454.944,803.858 429.589,804.047 429.589,804.047C429.589,804.047 382.83,820.666 363.745,823.931C358.956,824.751 355.388,819.439 355.388,819.439L345.144,823.347C345.144,823.347 346.353,816.398 353.429,813.492C360.152,810.732 363.649,812.384 363.649,812.384L383.065,802.671C383.065,802.671 370.999,800.303 357.594,797.94C351.992,796.952 343.375,796.162 337.771,793.44C332.635,790.944 332.557,785.054 332.557,785.054L316.266,783.987C316.266,783.987 321.814,776.882 329.815,776.338C338.063,775.777 343.09,779.303 343.09,779.303L400.868,788.022C395.264,781.873 386.81,771.78 386.81,771.78L372.95,769.196C372.95,769.196 382.43,763.592 386.761,764.535C394.635,766.25 420.666,777.586 420.666,777.586C420.666,777.586 445.663,750.533 461.224,728.012C467.535,718.879 482.875,695.083 482.875,695.083C482.875,695.083 475.654,711.68 476.567,712.671Z" style="fill:white;"/>
            </g>
        </g>
        <g transform="matrix(1,0,0,1,1337.66,198.864)">
            <g id="尾羽">
                <path d="M466.546,437.162C487.952,454.638 560.33,515.692 566.011,519.918C571.693,524.144 552.053,529.092 545.664,529.429C539.274,529.766 532.125,525.152 526.976,520.567C513.315,508.403 485.73,469.412 468.386,456.976C459.484,450.593 438.288,440.711 430.47,434.599C425.923,431.044 418.551,422.866 419.985,419.682C421.419,416.498 431.911,412.906 437.579,415.061C445.35,418.016 457.138,429.481 466.546,437.162Z" style="fill:white;"/>
            </g>
        </g>
        <g transform="matrix(0.355761,0,0,0.355761,1538.11,414.619)">
            <g id="ほっぺ">
                <path d="M214.851,283.239C229.815,281.996 243.347,273.764 267.745,276.021C296.816,278.711 320.867,294.516 322.616,322.069C324.177,346.665 322.525,356.067 297.027,374.023C283.5,383.548 254.816,382.617 240.452,377.03C225.426,371.186 203.813,350.238 194.817,338.62C190.291,332.773 174.722,319.523 171.096,310.127C167.516,300.852 170.568,291.917 174.845,289.636C183.586,284.973 201.393,284.357 214.851,283.239Z" style="fill:white;"/>
            </g>
        </g>
        <g transform="matrix(1,0,0,1,1337.66,198.864)">
            <g id="羽">
                <path d="M383.994,430.959C363.486,425.682 339.796,419.933 326.084,410.331C316.502,403.622 310.912,385.686 310.008,375.548C309.128,365.676 308.264,349.367 316.126,342.408C323.987,335.449 343.09,326.845 348.65,330.018C364.334,338.967 378.869,350.229 391.829,361.421C398.222,366.941 402.665,372.234 409.746,377.636C422.582,387.43 484.712,433.039 497.858,447.176C506.763,456.753 465.527,435.942 466.581,437.222C468.033,438.985 443.675,435.367 432.203,434.741C419.426,434.044 399.311,434.9 383.994,430.959Z" style="fill:white;"/>
            </g>
        </g>
        <g transform="matrix(1,0,0,1,1337.66,198.864)">
            <g id="嘴">
                <path d="M246.214,310.841L254.859,319.843C254.859,319.843 242.971,323.497 242.202,323.231C240.67,322.701 218.077,320.476 218.077,320.476C218.077,320.476 219.462,317.513 222.668,316.658C229.861,314.74 246.214,310.841 246.214,310.841Z" style="fill:white;"/>
            </g>
        </g>
        <g transform="matrix(1,0,0,1,1337.66,198.864)">
            <g id="足前">
                <path d="M355.273,470.504C355.513,470.896 358.685,469.544 358.793,469.856C358.942,470.284 355.59,473.637 355.908,474.164C356.196,474.64 358.909,474.179 358.909,474.179C358.909,474.179 352.841,479.524 349.967,482.097C343.085,488.259 335.98,500.286 335.98,500.286L350.505,503.58C350.505,503.58 352.364,501.242 356.37,501.303C359.468,501.351 362.01,503.842 362.01,503.842L356.501,504.218C356.501,504.218 355.998,507.043 353.207,507.908C350.778,508.661 345.681,507.704 341.07,507.066C337.472,506.568 330.207,506.259 330.207,506.259C330.207,506.259 320.774,513.999 314.682,517.082C310.768,519.063 307.552,516.335 307.552,516.335C307.513,516.273 302.657,518.269 302.657,518.269C302.657,518.269 304.194,514.371 306.958,513.082C309.328,511.977 311.675,512.469 311.675,512.469L323.084,505.726C323.084,505.726 302.152,508.223 295.626,508.262C290.286,508.293 288.653,506.167 289.558,504.684C289.687,504.473 284.546,505.504 284.546,505.504C284.546,505.504 285.652,503.097 288.582,502.327C290.846,501.732 293.3,503.037 293.3,503.037L318.276,501.658C318.276,501.658 315.224,501.156 313.469,500.422C312.151,499.871 311.483,497.808 311.483,497.808L306.613,498.079C306.613,498.079 308.92,495.543 311.434,495.534C313.313,495.527 315.849,497.025 315.849,497.025L326.943,498.546C326.943,498.546 338.737,486.737 345.356,479.362C350.248,473.911 357.134,464.735 357.134,464.735C357.134,464.735 354.864,469.835 355.273,470.504Z" style="fill:white;"/>
            </g>
        </g>
        <g id="目">
            <g transform="matrix(1.23259,0,0,1.22056,-380.264,-137.043)">
                <ellipse cx="1617.92" cy="529.22" rx="4.486" ry="4.545" style="fill:rgb(5,5,5);stroke:white;stroke-width:0.77px;"/>
            </g>
            <g transform="matrix(1,0,0,1,-13.108,-0.688817)">
                <ellipse cx="1627.14" cy="506.802" rx="1.771" ry="0.925" style="fill:rgb(5,5,5);stroke:white;stroke-width:0.95px;"/>
            </g>
        </g>
    </g>
</svg>
